<svg xmlns="http://www.w3.org/2000/svg" version="1.1" xmlns:xlink="http://www.w3.org/1999/xlink" xmlns:svgjs="http://svgjs.dev/svgjs" width="1500" height="1500" viewBox="0 0 1500 1500"><rect width="1500" height="1500" fill="#ffffff"></rect><g transform="matrix(0.6666666666666666,0,0,0.6666666666666666,249.39436519522388,590.9231401671651)"><svg viewBox="0 0 396 126" data-background-color="#ffffff" preserveAspectRatio="xMidYMid meet" height="477" width="1500" xmlns="http://www.w3.org/2000/svg" xmlns:xlink="http://www.w3.org/1999/xlink"><g id="tight-bounds" transform="matrix(1,0,0,1,0.24008861730862918,0.030603622035101807)"><svg viewBox="0 0 395.52 125.93894248193595" height="125.93894248193595" width="395.52"><g><svg viewBox="0 0 395.52 125.93894248193595" height="125.93894248193595" width="395.52"><g><svg viewBox="0 0 395.52 125.93894248193595" height="125.93894248193595" width="395.52"><g><svg viewBox="0 0 395.52 125.93894248193595" height="125.93894248193595" width="395.52"><g id="textblocktransform"><svg viewBox="0 0 395.52 125.93894248193595" height="125.93894248193595" width="395.52" id="textblock"><g><svg viewBox="0 0 395.52 100.00828341188394" height="100.00828341188394" width="395.52"><path d="M394.594 21.45C392.735 11.069 387.435 8.183 387.435 8.183 371.165-2.509 350.86-0.205 332.619 1.332 300.414 1.394 268.339 3.678 236.208 4.903 168.767 5.09 100.749 2.017 33.643 9.595 27.339 11.92-6.54 10.052 1.121 22.779 3.129 28.073 10.456 33.948 10.232 38.807 11.236 39.658 12.631 37.706 13.226 38.931 15.309 42.232 18.711 40.675 21.501 42.627 17.614 47.838 20.403 52.177 23.062 56.724 18.377 57.907 12.371 57.347 9.675 61.271 9.396 64.115 7.89 63.575 6.235 63.451 5.026 63.368 2.59 63.679 2.999 64.572 4.394 67.624-1.594 69.389 2.162 72.378-0.422 75.617 3.948 78.42 3.353 81.929 3.278 82.634 3.687 83.237 4.338 83.403 7.22 84.295 3.018 86.039 3.464 87.929 33.029 100.842 65.104 91.915 95.394 97.853 103.259 93.7 97.346 99.327 100.489 98.455 102.943 97.437 104.728 101.652 107.499 99.265 107.927 98.579 107.276 96.96 108.8 97.271 109.6 97.437 110.307 97.396 110.418 96.441 110.586 95.008 109.117 95.901 108.726 95.154 112.947 91.375 111.906 100.365 115.866 99.991 115.68 98.891 114.528 97.313 116.889 97.521 119.232 95.943 119.306 94.635 121.389 98.185 121.463 98.953 121.835 99.493 122.43 99.867 128.938 96.005 135.409 101.237 142.233 99.493 146.417 97.583 150.433 100.531 154.672 99.804 156.16 99.223 157.666 98.185 159.098 99.929 176.632 100.303 195.319 98.745 211.943 99.991 256.364 97.666 303.836 100.946 350.674 97.873 361.719 96.69 373.192 95.008 383.958 93.659 383.958 93.659 392.679 89.963 392.679 73.354S394.538 58.821 394.817 45.596C395.096 32.37 396.398 31.831 394.538 21.45Z" opacity="1" fill="#000000" data-fill-palette-color="tertiary"></path><g transform="matrix(1,0,0,1,55.76832,26.068561146666667)"><svg width="283.98335999999995" viewBox="0.8 -32.55 253.86999999999998 42.8" height="47.8711611185506" data-palette-color="#ffffff"><path d="M21.15-2.05L21.15-2.05Q19.95-0.2 19.95 0.35 19.95 0.9 20.4 1.15L20.4 1.15Q20.4 1.2 19.5 1.9L19.5 1.9Q18.7 2.3 17.7 2.3 16.7 2.3 16.25 2.08 15.8 1.85 15.95 1.35L15.95 1.35Q16.65-0.9 21.2-7.68 25.75-14.45 27.3-17.25L27.3-17.25Q30.65-23.3 30.65-26.9L30.65-26.9Q30.65-28.4 30.15-29.45L30.15-29.45Q29.15-31.5 25.4-31.5L25.4-31.5Q19.55-31.5 13.3-26.45L13.3-26.45Q8.3-22.4 5.65-17.88 3-13.35 3-9.8L3-9.8Q3-4.7 7.5-4.6L7.5-4.6Q7.7-4.6 7.9-4.6L7.9-4.6Q13.65-4.6 16.8-8.75L16.8-8.75Q18-10.4 18-11.55 18-12.7 17.5-13L17.5-13Q17.45-13.05 17.45-13.2 17.45-13.35 17.75-13.35L17.75-13.35Q19.05-13.35 19.05-11.65L19.05-11.65Q19.05-10.6 18.03-8.8 17-7 14.4-5.4 11.8-3.8 8.35-3.8 4.9-3.8 2.85-5.95 0.8-8.1 0.8-11.6L0.8-11.6Q0.8-19.5 11.1-27.75L11.1-27.75Q13.75-29.85 18.07-31.2 22.4-32.55 26.35-32.55 30.3-32.55 31.73-31.18 33.15-29.8 33.15-27.5L33.15-27.5Q33.15-24 30.3-18.05L30.3-18.05Q29.4-16.2 26.25-11.3L26.25-11.3 30.1-16.2Q32.9-19.85 39.8-26.6L39.8-26.6Q41.3-28.05 43.13-29.03 44.95-30 46.25-30L46.25-30Q48.05-30 48.05-28.1L48.05-28.1Q48.05-26.45 46.48-23.13 44.9-19.8 43.3-16.82 41.7-13.85 41.35-12.93 41-12 40.85-11.45 40.7-10.9 40.65-10.85L40.65-10.85Q40.8-11.1 43.95-14.68 47.1-18.25 53.25-23.6L53.25-23.6 61.25-30.2Q62.2-31 62.95-31 63.7-31 64.17-29.75 64.65-28.5 64.65-27.73 64.65-26.95 62.25-24.5L62.25-24.5Q56-18.1 51.65-10.5 47.3-2.9 47.3 0.35L47.3 0.35Q47.3 1.2 47.6 1.53 47.9 1.85 48.55 1.73 49.2 1.6 51.28 0.7 53.35-0.2 54-0.35L54-0.35Q54.25-0.25 54.25-0.1L54.25-0.1Q54.25 0.65 51.63 2 49 3.35 47.68 3.35 46.35 3.35 46.05 2.9L46.05 2.9Q45.15 1.6 45.15-0.25L45.15-0.25Q45.15-4.55 49.75-12.6L49.75-12.6Q52.7-17.65 58.85-26.2L58.85-26.2Q54.05-22.3 45.85-14.25 37.65-6.2 35.1-1.65L35.1-1.65Q33.8 0.7 31.95 0.7L31.95 0.7Q31.1 0.7 31.1 0.1L31.1 0.1Q31.1-0.1 32.13-1.7 33.15-3.3 36.65-9.2L36.65-9.2Q45.25-24.15 45.25-27.2L45.25-27.2Q45.25-28 44.7-28L44.7-28Q43.9-28 42.35-26.65L42.35-26.65Q36.8-22 30.55-14.5 24.3-7 21.15-2.05ZM67.65-20.4Q68.4-20.4 69.07-19.93 69.75-19.45 69.75-18.8 69.75-18.15 69.12-17.68 68.5-17.2 67.75-17.2 67-17.2 66.37-17.75 65.75-18.3 65.75-19L65.75-19Q65.75-20.4 67.65-20.4L67.65-20.4ZM58.6 0.55L58.6 0.55Q56.05 0.55 56.05-2.75L56.05-2.75Q56.05-5.45 59-10.23 61.95-15 63.75-15.05L63.75-15.05Q64.25-15.05 64.87-14.65 65.5-14.25 65.5-13.85L65.5-13.85Q65.25-13.5 64.9-13.08 64.55-12.65 64.15-12.15 63.75-11.65 63.05-10.73 62.35-9.8 61.7-8.95L61.7-8.95Q57.95-4.1 57.95-2.27 57.95-0.45 59.2-0.45L59.2-0.45Q60.25-0.45 62.05-1.6L62.05-1.6Q66.25-4.2 68.7-7.3L68.7-7.3Q69.6-8.45 69.92-8.45 70.25-8.45 70.25-8.05 70.25-7.65 69.1-6.45 67.95-5.25 67.27-4.55 66.6-3.85 66.35-3.63 66.1-3.4 65.42-2.78 64.75-2.15 64.4-1.9 64.05-1.65 63.4-1.15 62.75-0.65 62.25-0.43 61.75-0.2 61.1 0.1L61.1 0.1Q60.05 0.55 58.6 0.55ZM81.15-16.1L81.15-16.1 88.35-16.2Q88.5-16.1 88.5-16.05L88.5-16.05Q88.5-15.6 82.27-14.8 76.05-14 75.55-13.85L75.55-13.85Q74.6-13 72.05-8.78 69.5-4.55 69.5-2.6L69.5-2.6Q69.5-0.75 72.05-0.75L72.05-0.75Q73.25-0.75 75.2-1.5 77.15-2.25 78.2-2.9L78.2-2.9Q81-4.65 84.2-8.05L84.2-8.05Q84.9-8.75 85.15-8.75L85.15-8.75Q85.3-8.75 85.3-8.45 85.3-8.15 84.55-7.25L84.55-7.25Q81.95-4.05 78.7-2.1L78.7-2.1Q74.8 0.3 71.25 0.3L71.25 0.3Q69.7 0.3 68.72-0.38 67.75-1.05 67.75-3.1 67.75-5.15 69.55-8.72 71.35-12.3 72.3-14.05L72.3-14.05Q71.6-13.9 71.1-13.9L71.1-13.9Q69.65-13.9 69.65-15.05L69.65-15.05Q69.65-15.9 70.85-16.25L70.85-16.25Q71-16.25 71.3-16.3L71.3-16.3 74.2-16.3Q75.1-17.45 76.25-18.95L76.25-18.95Q77.65-20.75 78.15-20.75 78.65-20.75 79.4-20.35 80.15-19.95 80.15-19.4 80.15-18.85 77.75-16.15L77.75-16.15Q79.05-16.1 81.15-16.1ZM86.74 0.65L86.74 0.65Q86.19 0.65 85.74 0.5L85.74 0.5Q82.54-0.4 82.54-3.1L82.54-3.1Q82.54-6.6 86.94-11.2 91.34-15.8 94.84-15.8L94.84-15.8Q95.99-15.8 96.72-15.18 97.44-14.55 97.44-13.48 97.44-12.4 96.79-11.23 96.14-10.05 94.84-10.05 93.54-10.05 93.54-10.85L93.54-10.85Q93.54-11.4 94.22-12.53 94.89-13.65 94.89-13.73 94.89-13.8 94.74-13.8L94.74-13.8Q93.34-13.65 90.92-11.8 88.49-9.95 87.59-8.7L87.59-8.7 85.64-5.85Q85.14-5.05 84.92-3.95 84.69-2.85 84.69-2.3 84.69-1.75 85.32-1.05 85.94-0.35 87.09-0.35L87.09-0.35Q89.59-0.35 93.29-3.28 96.99-6.2 98.99-8.85L98.99-8.85Q99.24-9.15 99.59-9.15 99.94-9.15 99.94-8.95 99.94-8.75 99.69-8.45L99.69-8.45Q96.94-4.8 93.12-2.08 89.29 0.65 86.74 0.65ZM108.94-0.2L108.94-0.2Q105.99-0.2 105.99-3.65L105.99-3.65Q105.99-5.6 107.37-7.98 108.74-10.35 110.74-13.55L110.74-13.55Q104.34-10.35 99.14-4.1L99.14-4.1Q96.24 0.25 95.74 0.25L95.74 0.25Q94.29 0.25 94.29-0.6L94.29-0.6Q94.29-1.05 94.89-2.2L94.89-2.2Q99.74-10.85 102.24-14.85L102.24-14.85Q108.19-24.4 110.64-25.2L110.64-25.2Q110.74-25.25 110.84-25.25L110.84-25.25Q111.49-25.25 111.74-24.2L111.74-24.2Q111.59-23.15 106.54-16.6L106.54-16.6Q101.29-9.95 100.59-7.9L100.59-7.9Q102.44-9.25 107.04-12.45L107.04-12.45Q111.99-15.9 113.59-15.9 115.19-15.9 115.19-14.65L115.19-14.65Q115.19-14.45 115.17-14.38 115.14-14.3 111.69-9.65 108.24-5 108.24-2.8L108.24-2.8Q108.24-1.65 109.09-1.65L109.09-1.65Q111.79-1.75 117.19-8.15L117.19-8.15Q117.64-8.6 117.87-8.6 118.09-8.6 118.09-8.3L118.09-8.3Q118.09-7.3 113.14-2.9L113.14-2.9Q110.04-0.2 108.94-0.2ZM135.14-1.25L135.14-1.25Q130.74 2.15 128.69 2.15L128.69 2.15Q127.59 2.15 127.06 1.07 126.54 0 126.54-1.25L126.54-1.25Q126.54-3.65 128.56-8.45 130.59-13.25 132.44-13.25L132.44-13.25Q133.39-13.25 134.06-9.5 134.74-5.75 135.44-4.05L135.44-4.05Q138.84-7.65 145.29-16.05L145.29-16.05Q153.39-26.7 156.04-27.7L156.04-27.7Q156.94-28.05 157.89-28.05 158.84-28.05 159.46-27.65 160.09-27.25 160.09-26.65L160.09-26.65Q160.09-25.8 158.64-25.65L158.64-25.65Q156.89-24.7 153.24-21.05L153.24-21.05Q149.59-17.5 147.39-14.4L147.39-14.4Q142.04-6.95 136.39-2.25L136.39-2.25Q139.19 1.9 145.19 1.9L145.19 1.9Q145.84 1.9 147.14 1.8L147.14 1.8Q161.04 0.5 166.84-10.25L166.84-10.25Q169.19-14.55 169.19-18.75 169.19-22.95 166.14-26.3L166.14-26.3Q163.69-29.05 160.81-29.7 157.94-30.35 154.94-30.35L154.94-30.35Q147.24-30.35 140.74-26.8L140.74-26.8Q133.89-23.05 133.89-18.4L133.89-18.4Q133.89-17.15 134.56-16.35 135.24-15.55 135.49-15.45L135.49-15.45 135.19-15.45Q133.89-15.7 132.89-16.75L132.89-16.75Q131.79-18.05 131.79-19.5L131.79-19.5Q131.79-24.5 138.06-28.1 144.34-31.7 152.79-31.7L152.79-31.7Q156.69-31.7 160.79-30.8 164.89-29.9 168.24-26.5L168.24-26.5Q172.09-22.5 172.09-17.45L172.09-17.45Q172.09-13.7 169.89-9.7L169.89-9.7Q166.09-2.8 158.54 0.4L158.54 0.4Q152.49 2.95 145.49 2.95 138.49 2.95 135.14-1.25ZM128.34-1.45L128.34-1.45Q128.34 0.1 128.94 1.25L128.94 1.25Q131.09 0.3 134.14-2.7L134.14-2.7Q132.69-5.1 132.31-6.48 131.94-7.85 131.79-10.1L131.79-10.1Q128.34-5.15 128.34-1.45ZM135.49-15.45L135.49-15.45Q135.54-15.45 135.59-15.5L135.59-15.5Q135.59-15.4 135.56-15.4 135.54-15.4 135.49-15.45ZM174.38 0.65L174.38 0.65Q173.83 0.65 173.38 0.5L173.38 0.5Q170.18-0.4 170.18-3.1L170.18-3.1Q170.18-6.6 174.58-11.2 178.98-15.8 182.48-15.8L182.48-15.8Q183.63-15.8 184.36-15.18 185.08-14.55 185.08-13.65L185.08-13.65Q185.08-10.85 180.86-8.3 176.63-5.75 173.98-5.75L173.98-5.75Q173.58-5.75 173.28-5.85L173.28-5.85Q172.53-4.5 172.53-3L172.53-3Q172.53-0.4 175.01-0.4 177.48-0.4 181.43-3.75L181.43-3.75Q184.48-6.2 186.63-8.95L186.63-8.95Q187.08-9.55 187.41-9.55 187.73-9.55 187.73-9.25 187.73-8.95 187.33-8.4L187.33-8.4Q184.63-4.85 180.83-2.1 177.03 0.65 174.38 0.65ZM183.83-13.75L183.83-13.75Q183.83-14.35 182.56-14.35 181.28-14.35 178.93-12.4L178.93-12.4Q175.78-9.8 174.03-6.95L174.03-6.95Q174.33-6.85 174.68-6.85L174.68-6.85Q176.58-6.85 179.76-8.88 182.93-10.9 183.73-13.3L183.73-13.3Q183.83-13.55 183.83-13.75ZM195.48-1.8L193.88-0.75Q192.43 0.1 190.31 0.1 188.18 0.1 187.06-1.3 185.93-2.7 185.13-5.75L185.13-5.75Q184.23-4.85 183.88-4.85L183.88-4.85Q183.63-4.85 183.63-5.2 183.63-5.55 183.88-5.8L183.88-5.8Q185.53-7.85 189.48-11.7L189.48-11.7 195.78-17.6Q198.48-20.15 198.98-20.15L198.98-20.15Q200.58-20.15 200.58-18.95L200.58-18.95Q200.58-18.35 200.11-17.78 199.63-17.2 199.41-16.88 199.18-16.55 198.93-16.25L198.93-16.25Q198.03-14.7 197.11-9.85 196.18-5 195.68-3.1L195.68-3.1Q199.83-3.15 204.23-8.5L204.23-8.5Q204.73-9 204.98-9 205.23-9 205.23-8.68 205.23-8.35 204.78-7.8L204.78-7.8Q201.88-4.4 199.38-3.05L199.38-3.05Q197.88-2.3 195.48-1.8L195.48-1.8ZM187.13-6.3L187.13-6.3Q187.13-4.6 188.26-3.53 189.38-2.45 190.78-2.45 192.18-2.45 192.93-3L192.93-3Q193.93-3.55 194.91-7.6 195.88-11.65 196.08-14.75L196.08-14.75 196.28-16.45Q193.53-14.4 190.41-11.15 187.28-7.9 187.18-6.85L187.18-6.85Q187.13-6.55 187.13-6.3ZM213.48-20.4Q214.23-20.4 214.9-19.93 215.58-19.45 215.58-18.8 215.58-18.15 214.95-17.68 214.33-17.2 213.58-17.2 212.83-17.2 212.2-17.75 211.58-18.3 211.58-19L211.58-19Q211.58-20.4 213.48-20.4L213.48-20.4ZM204.43 0.55L204.43 0.55Q201.88 0.55 201.88-2.75L201.88-2.75Q201.88-5.45 204.83-10.23 207.78-15 209.58-15.05L209.58-15.05Q210.08-15.05 210.7-14.65 211.33-14.25 211.33-13.85L211.33-13.85Q211.08-13.5 210.73-13.08 210.38-12.65 209.98-12.15 209.58-11.65 208.88-10.73 208.18-9.8 207.53-8.95L207.53-8.95Q203.78-4.1 203.78-2.27 203.78-0.45 205.03-0.45L205.03-0.45Q206.08-0.45 207.88-1.6L207.88-1.6Q212.08-4.2 214.53-7.3L214.53-7.3Q215.43-8.45 215.75-8.45 216.08-8.45 216.08-8.05 216.08-7.65 214.93-6.45 213.78-5.25 213.1-4.55 212.43-3.85 212.18-3.63 211.93-3.4 211.25-2.78 210.58-2.15 210.23-1.9 209.88-1.65 209.23-1.15 208.58-0.65 208.08-0.43 207.58-0.2 206.93 0.1L206.93 0.1Q205.88 0.55 204.43 0.55ZM230.63-15.25L230.63-15.25 231.33-15.4Q231.98-15.4 232.35-15 232.73-14.6 232.73-14.38 232.73-14.15 232.68-13.88 232.63-13.6 231.23-11.35L231.23-11.35Q229.48-8.3 228.33-6.2L228.33-6.2Q224.28 1.35 222.13 4.15L222.13 4.15Q217.53 10.25 213.38 10.25L213.38 10.25Q211.93 10.25 210.85 9.03 209.78 7.8 209.73 6.3L209.73 6.3Q209.88 5.7 210.18 5.7L210.18 5.7Q210.33 5.7 210.43 6.05L210.43 6.05Q210.68 7.35 211.38 8.05 212.08 8.75 212.78 8.75L212.78 8.75Q215.63 8.75 218.88 5L218.88 5Q221.03 2.5 223.63-2.3L223.63-2.3 226.13-7.25 222.38-3.45Q218.78 0 217.45 0 216.13 0 214.93-0.9L214.93-0.9Q213.58-1.9 213.58-3.55L213.58-3.55Q213.58-7.2 218.7-12.25 223.83-17.3 228.03-17.3L228.03-17.3Q229.73-17.3 230.23-16.2L230.23-16.2Q230.38-15.8 230.48-15.53 230.58-15.25 230.63-15.25ZM215.68-2.95L215.68-2.95Q215.68-1.15 216.93-1.15L216.93-1.15Q219.83-1.15 224.83-7.5L224.83-7.5 230.13-14.8Q229.83-15.5 228.88-15.5L228.88-15.5Q225.78-15.5 220.73-10.73 215.68-5.95 215.68-2.95ZM240.47-15.8L240.47-15.8Q241.82-15.8 241.82-14.75L241.82-14.75Q241.82-14.45 241.67-14.15L241.67-14.15Q237.17-7.9 236.27-4.7L236.27-4.7Q247.92-16.35 250.42-16.35L250.42-16.35Q250.67-16.4 250.87-16.4L250.87-16.4Q252.27-16.4 252.27-15.15L252.27-15.15Q252.27-14.9 252.17-14.65 252.07-14.4 250.17-11.95L250.17-11.95Q247.97-9.35 246.45-6.95 244.92-4.55 244.92-2.95 244.92-1.35 245.62-1.35L245.62-1.35Q247.82-1.35 253.27-7.4L253.27-7.4Q253.37-7.5 253.62-7.85L253.62-7.85Q254.37-8.75 254.52-8.75 254.67-8.75 254.67-8.25 254.67-7.75 253.97-6.95L253.97-6.95Q247.77 0.1 245.17 0.1L245.17 0.1Q242.72 0.1 242.72-2.6 242.72-5.3 244.72-8.8L244.72-8.8 247.92-14Q244.52-11.5 241.87-8.53 239.22-5.55 237.05-2.75 234.87 0.05 234.52 0.05L234.52 0.05Q233.77 0.05 233.35-0.58 232.92-1.2 232.92-2.13 232.92-3.05 233.57-4.6 234.22-6.15 235.22-8.35L235.22-8.35 232.22-5.2Q231.12-4.1 230.85-4.1 230.57-4.1 230.57-4.42 230.57-4.75 230.97-5.15L230.97-5.15Q232.82-7 234.17-8.7L234.17-8.7Q235.47-10.4 239.52-15.2L239.52-15.2Q239.97-15.8 240.47-15.8Z" opacity="1" transform="matrix(1,0,0,1,0,0)" fill="#ffffff" class="wordmark-text-0" data-fill-palette-color="quaternary" id="text-0"></path></svg></g></svg></g><g transform="matrix(1,0,0,1,147.11728198904706,111.3095156441069)"><svg viewBox="0 0 101.2854360219059 14.629426837829065" height="14.629426837829065" width="101.2854360219059"><g transform="matrix(1,0,0,1,0,0)"><svg width="101.2854360219059" viewBox="1.3 -37 325.37 47" height="14.629426837829065" data-palette-color="#8a64b9"><path d="M44.5-35.15L44.5-35.15Q45.3-35.15 45.98-34.6 46.65-34.05 46.65-33.05L46.65-33.05Q46.65-32.7 46.55-32.3L46.55-32.3 35.9-1.3Q35.7-0.7 35.18-0.38 34.65-0.05 34.1 0L34.1 0Q33.5 0 32.95-0.33 32.4-0.65 32.1-1.3L32.1-1.3 23.75-21.5 24.15-21.35 15.85-1.3Q15.55-0.65 15-0.33 14.45 0 13.85 0L13.85 0Q13.3-0.05 12.78-0.38 12.25-0.7 12.05-1.3L12.05-1.3 1.4-32.3Q1.3-32.7 1.3-33L1.3-33Q1.3-34 2.02-34.58 2.75-35.15 3.5-35.15L3.5-35.15Q4.1-35.15 4.65-34.8 5.2-34.45 5.4-33.85L5.4-33.85 14.75-6.25 14.05-6.25 22.2-26.4Q22.45-27 22.95-27.35 23.45-27.7 24.1-27.7L24.1-27.7Q24.7-27.7 25.23-27.35 25.75-27 25.95-26.4L25.95-26.4 33.85-6.55 33.25-6.3 42.55-33.85Q42.75-34.45 43.3-34.8 43.85-35.15 44.5-35.15ZM62.6 0.5L62.6 0.5Q58.6 0.5 55.6-1.2 52.6-2.9 50.95-5.88 49.3-8.85 49.3-12.75L49.3-12.75Q49.3-17.1 51.02-20.18 52.75-23.25 55.5-24.88 58.25-26.5 61.35-26.5L61.35-26.5Q63.7-26.5 65.82-25.65 67.95-24.8 69.62-23.18 71.3-21.55 72.3-19.28 73.3-17 73.35-14.2L73.35-14.2Q73.3-13.4 72.7-12.85 72.1-12.3 71.3-12.3L71.3-12.3 51.55-12.3 50.65-15.75 69.9-15.75 69.1-15.05 69.1-16.15Q68.95-18.2 67.77-19.68 66.6-21.15 64.9-21.95 63.2-22.75 61.35-22.75L61.35-22.75Q59.85-22.75 58.37-22.23 56.9-21.7 55.72-20.53 54.55-19.35 53.85-17.5 53.15-15.65 53.15-13.05L53.15-13.05Q53.15-10.15 54.32-7.95 55.5-5.75 57.6-4.48 59.7-3.2 62.45-3.2L62.45-3.2Q64.25-3.2 65.55-3.65 66.85-4.1 67.77-4.78 68.7-5.45 69.35-6.15L69.35-6.15Q70-6.6 70.65-6.6L70.65-6.6Q71.35-6.6 71.85-6.1 72.35-5.6 72.35-4.9L72.35-4.9Q72.35-4.05 71.55-3.4L71.55-3.4Q70.1-1.85 67.72-0.68 65.35 0.5 62.6 0.5ZM91.85-26.5L91.85-26.5Q95.25-26.5 97.95-24.78 100.65-23.05 102.22-20.05 103.8-17.05 103.8-13.1L103.8-13.1Q103.8-9.15 102.22-6.1 100.65-3.05 97.97-1.28 95.3 0.5 91.95 0.5L91.95 0.5Q90.1 0.5 88.47-0.08 86.85-0.65 85.52-1.63 84.2-2.6 83.3-3.78 82.4-4.95 82-6.1L82-6.1 83.1-6.8 83.1-1.8Q83.1-0.95 82.55-0.35 82 0.25 81.1 0.25L81.1 0.25Q80.25 0.25 79.67-0.33 79.1-0.9 79.1-1.8L79.1-1.8 79.1-34.95Q79.1-35.8 79.67-36.4 80.25-37 81.1-37L81.1-37Q82-37 82.55-36.4 83.1-35.8 83.1-34.95L83.1-34.95 83.1-19.55 82.35-19.95Q82.7-21.2 83.57-22.38 84.45-23.55 85.72-24.48 87-25.4 88.57-25.95 90.15-26.5 91.85-26.5ZM91.4-22.8L91.4-22.8Q88.9-22.8 86.97-21.55 85.05-20.3 83.97-18.1 82.9-15.9 82.9-13.1L82.9-13.1Q82.9-10.3 83.97-8.05 85.05-5.8 86.97-4.5 88.9-3.2 91.4-3.2L91.4-3.2Q93.9-3.2 95.8-4.5 97.7-5.8 98.8-8.05 99.9-10.3 99.9-13.1L99.9-13.1Q99.9-15.9 98.8-18.1 97.7-20.3 95.8-21.55 93.9-22.8 91.4-22.8ZM125.99-35L138.49-35Q142.14-35 144.92-33.63 147.69-32.25 149.54-29.8 151.39-27.35 152.32-24.18 153.24-21 153.24-17.5L153.24-17.5Q153.24-12.7 151.59-8.72 149.94-4.75 146.69-2.38 143.44 0 138.49 0L138.49 0 125.99 0Q125.14 0 124.57-0.6 123.99-1.2 123.99-2.05L123.99-2.05 123.99-33Q123.99-33.85 124.57-34.43 125.14-35 125.99-35L125.99-35ZM127.84-3.9L137.99-3.9Q141.84-3.9 144.27-5.75 146.69-7.6 147.82-10.7 148.94-13.8 148.94-17.5L148.94-17.5Q148.94-20.2 148.32-22.68 147.69-25.15 146.37-27.05 145.04-28.95 142.97-30.05 140.89-31.15 137.99-31.15L137.99-31.15 127.74-31.15 128.14-31.55 128.14-3.4 127.84-3.9ZM171.29 0.5L171.29 0.5Q167.29 0.5 164.29-1.2 161.29-2.9 159.64-5.88 157.99-8.85 157.99-12.75L157.99-12.75Q157.99-17.1 159.71-20.18 161.44-23.25 164.19-24.88 166.94-26.5 170.04-26.5L170.04-26.5Q172.39-26.5 174.51-25.65 176.64-24.8 178.31-23.18 179.99-21.55 180.99-19.28 181.99-17 182.04-14.2L182.04-14.2Q181.99-13.4 181.39-12.85 180.79-12.3 179.99-12.3L179.99-12.3 160.24-12.3 159.34-15.75 178.59-15.75 177.79-15.05 177.79-16.15Q177.64-18.2 176.46-19.68 175.29-21.15 173.59-21.95 171.89-22.75 170.04-22.75L170.04-22.75Q168.54-22.75 167.06-22.23 165.59-21.7 164.41-20.53 163.24-19.35 162.54-17.5 161.84-15.65 161.84-13.05L161.84-13.05Q161.84-10.15 163.01-7.95 164.19-5.75 166.29-4.48 168.39-3.2 171.14-3.2L171.14-3.2Q172.94-3.2 174.24-3.65 175.54-4.1 176.46-4.78 177.39-5.45 178.04-6.15L178.04-6.15Q178.69-6.6 179.34-6.6L179.34-6.6Q180.04-6.6 180.54-6.1 181.04-5.6 181.04-4.9L181.04-4.9Q181.04-4.05 180.24-3.4L180.24-3.4Q178.79-1.85 176.41-0.68 174.04 0.5 171.29 0.5ZM186.34-4.1L186.34-4.1Q185.89-4.75 185.94-5.48 185.99-6.2 186.79-6.75L186.79-6.75Q187.29-7.1 187.96-7.05 188.64-7 189.19-6.4L189.19-6.4Q190.59-4.75 192.39-3.78 194.19-2.8 196.79-2.8L196.79-2.8Q197.99-2.85 199.19-3.2 200.39-3.55 201.21-4.42 202.04-5.3 202.04-6.75L202.04-6.75Q202.04-8.15 201.19-8.97 200.34-9.8 198.99-10.33 197.64-10.85 196.04-11.25L196.04-11.25Q194.39-11.7 192.79-12.28 191.19-12.85 189.91-13.73 188.64-14.6 187.86-15.93 187.09-17.25 187.09-19.15L187.09-19.15Q187.09-21.4 188.31-23.05 189.54-24.7 191.61-25.6 193.69-26.5 196.14-26.5L196.14-26.5Q197.54-26.5 199.06-26.18 200.59-25.85 202.04-25.08 203.49-24.3 204.59-22.95L204.59-22.95Q205.04-22.45 205.09-21.7 205.14-20.95 204.44-20.35L204.44-20.35Q203.89-19.95 203.21-20 202.54-20.05 202.09-20.5L202.09-20.5Q201.04-21.75 199.46-22.43 197.89-23.1 195.99-23.1L195.99-23.1Q194.79-23.1 193.64-22.75 192.49-22.4 191.71-21.58 190.94-20.75 190.94-19.3L190.94-19.3Q190.99-17.95 191.84-17.1 192.69-16.25 194.14-15.73 195.59-15.2 197.34-14.7L197.34-14.7Q198.94-14.3 200.41-13.78 201.89-13.25 203.09-12.4 204.29-11.55 204.99-10.23 205.69-8.9 205.69-6.9L205.69-6.9Q205.69-4.6 204.39-2.93 203.09-1.25 200.96-0.38 198.84 0.5 196.39 0.5L196.39 0.5Q193.64 0.5 190.96-0.55 188.29-1.6 186.34-4.1ZM215.33-24.25L215.33-2.05Q215.33-1.2 214.76-0.6 214.18 0 213.33 0L213.33 0Q212.43 0 211.88-0.6 211.33-1.2 211.33-2.05L211.33-2.05 211.33-24.25Q211.33-25.1 211.91-25.68 212.48-26.25 213.33-26.25L213.33-26.25Q214.18-26.25 214.76-25.68 215.33-25.1 215.33-24.25L215.33-24.25ZM213.33-29.6L213.33-29.6Q212.08-29.6 211.48-30.1 210.88-30.6 210.88-31.65L210.88-31.65 210.88-32.35Q210.88-33.4 211.53-33.9 212.18-34.4 213.38-34.4L213.38-34.4Q214.58-34.4 215.18-33.9 215.78-33.4 215.78-32.35L215.78-32.35 215.78-31.65Q215.78-30.6 215.16-30.1 214.53-29.6 213.33-29.6ZM233.13-26.5L233.13-26.5Q235.33-26.5 237.18-25.78 239.03-25.05 240.41-23.9 241.78-22.75 242.56-21.5 243.33-20.25 243.33-19.15L243.33-19.15 242.33-19.75 242.33-24.1Q242.33-24.95 242.91-25.53 243.48-26.1 244.33-26.1L244.33-26.1Q245.23-26.1 245.78-25.53 246.33-24.95 246.33-24.1L246.33-24.1 246.33-2.2Q246.33 1.9 244.61 4.6 242.88 7.3 239.98 8.65 237.08 10 233.53 10L233.53 10Q232.03 10 230.21 9.6 228.38 9.2 226.98 8.63 225.58 8.05 225.23 7.45L225.23 7.45Q224.48 6.95 224.31 6.33 224.13 5.7 224.48 5.15L224.48 5.15Q224.98 4.45 225.68 4.45 226.38 4.45 227.48 4.9L227.48 4.9Q227.98 5.05 228.93 5.4 229.88 5.75 231.13 6.03 232.38 6.3 233.58 6.3L233.58 6.3Q237.83 6.3 240.08 4.08 242.33 1.85 242.33-1.8L242.33-1.8 242.33-6.45 242.88-6.2Q242.58-4.8 241.68-3.6 240.78-2.4 239.46-1.48 238.13-0.55 236.51-0.03 234.88 0.5 233.23 0.5L233.23 0.5Q229.73 0.5 226.96-1.25 224.18-3 222.56-6.05 220.93-9.1 220.93-13L220.93-13Q220.93-16.95 222.56-20 224.18-23.05 226.93-24.78 229.68-26.5 233.13-26.5ZM233.68-22.8L233.68-22.8Q231.08-22.8 229.08-21.53 227.08-20.25 225.93-18.05 224.78-15.85 224.78-13L224.78-13Q224.78-10.25 225.93-8.03 227.08-5.8 229.08-4.5 231.08-3.2 233.68-3.2L233.68-3.2Q236.28-3.2 238.28-4.48 240.28-5.75 241.43-7.95 242.58-10.15 242.58-13L242.58-13Q242.58-15.9 241.43-18.1 240.28-20.3 238.28-21.55 236.28-22.8 233.68-22.8ZM266.58-26.5L266.58-26.5Q269.98-26.5 271.93-25.1 273.88-23.7 274.7-21.35 275.53-19 275.53-16.1L275.53-16.1 275.53-2.05Q275.53-1.2 274.95-0.6 274.38 0 273.53 0L273.53 0Q272.68 0 272.1-0.6 271.53-1.2 271.53-2.05L271.53-2.05 271.53-16Q271.53-17.9 270.95-19.43 270.38-20.95 269.05-21.88 267.73-22.8 265.43-22.8L265.43-22.8Q263.33-22.8 261.58-21.88 259.83-20.95 258.78-19.43 257.73-17.9 257.73-16L257.73-16 257.73-2.05Q257.73-1.2 257.15-0.6 256.58 0 255.73 0L255.73 0Q254.88 0 254.3-0.6 253.73-1.2 253.73-2.05L253.73-2.05 253.73-23.85Q253.73-24.7 254.3-25.28 254.88-25.85 255.73-25.85L255.73-25.85Q256.63-25.85 257.18-25.28 257.73-24.7 257.73-23.85L257.73-23.85 257.73-20.3 256.73-19.2Q256.98-20.5 257.88-21.83 258.78-23.15 260.13-24.2 261.48-25.25 263.13-25.88 264.78-26.5 266.58-26.5ZM294.63 0.5L294.63 0.5Q290.63 0.5 287.63-1.2 284.63-2.9 282.98-5.88 281.33-8.85 281.33-12.75L281.33-12.75Q281.33-17.1 283.05-20.18 284.78-23.25 287.53-24.88 290.28-26.5 293.38-26.5L293.38-26.5Q295.73-26.5 297.85-25.65 299.98-24.8 301.65-23.18 303.33-21.55 304.33-19.28 305.33-17 305.38-14.2L305.38-14.2Q305.33-13.4 304.73-12.85 304.13-12.3 303.33-12.3L303.33-12.3 283.58-12.3 282.68-15.75 301.93-15.75 301.13-15.05 301.13-16.15Q300.98-18.2 299.8-19.68 298.63-21.15 296.93-21.95 295.23-22.75 293.38-22.75L293.38-22.75Q291.88-22.75 290.4-22.23 288.93-21.7 287.75-20.53 286.58-19.35 285.88-17.5 285.18-15.65 285.18-13.05L285.18-13.05Q285.18-10.15 286.35-7.95 287.53-5.75 289.63-4.48 291.73-3.2 294.48-3.2L294.48-3.2Q296.28-3.2 297.58-3.65 298.88-4.1 299.8-4.78 300.73-5.45 301.38-6.15L301.38-6.15Q302.03-6.6 302.68-6.6L302.68-6.6Q303.38-6.6 303.88-6.1 304.38-5.6 304.38-4.9L304.38-4.9Q304.38-4.05 303.58-3.4L303.58-3.4Q302.13-1.85 299.75-0.68 297.38 0.5 294.63 0.5ZM313.12 0L313.12 0Q312.27 0 311.7-0.6 311.12-1.2 311.12-2.05L311.12-2.05 311.12-23.85Q311.12-24.7 311.7-25.28 312.27-25.85 313.12-25.85L313.12-25.85Q314.02-25.85 314.57-25.28 315.12-24.7 315.12-23.85L315.12-23.85 315.12-17.25 314.52-18.3Q314.82-19.85 315.6-21.33 316.37-22.8 317.57-23.98 318.77-25.15 320.32-25.83 321.87-26.5 323.72-26.5L323.72-26.5Q324.82-26.5 325.75-25.98 326.67-25.45 326.67-24.5L326.67-24.5Q326.67-23.45 326.12-22.95 325.57-22.45 324.87-22.45L324.87-22.45Q324.22-22.45 323.62-22.73 323.02-23 322.12-23L322.12-23Q320.87-23 319.65-22.33 318.42-21.65 317.4-20.4 316.37-19.15 315.75-17.57 315.12-16 315.12-14.2L315.12-14.2 315.12-2.05Q315.12-1.2 314.55-0.6 313.97 0 313.12 0Z" opacity="1" transform="matrix(1,0,0,1,0,0)" fill="#000000" class="slogan-text-1" data-fill-palette-color="secondary" id="text-1"></path></svg></g></svg></g></svg></g></svg></g><g></g></svg></g></svg></g><defs></defs></svg><rect width="395.52" height="125.93894248193595" fill="none" stroke="none" visibility="hidden"></rect></g></svg></g></svg>